<svg width="25" height="25" viewBox="0 0 25 25" fill="none" xmlns="http://www.w3.org/2000/svg">
<path d="M24.434 11.5702L1.54457 0.11003C1.36517 0.0201892 1.16366 -0.015808 0.9643 0.00637277C0.764942 0.0285535 0.576238 0.107966 0.420907 0.235049C0.272568 0.359541 0.161847 0.522997 0.101194 0.707045C0.0405401 0.891092 0.0323576 1.08843 0.0775663 1.27688L3.15723 12.4974L0.0359493 23.6867C-0.00647262 23.844 -0.0114246 24.0092 0.0214918 24.1688C0.0544081 24.3285 0.124274 24.4781 0.225472 24.6058C0.32667 24.7335 0.456376 24.8356 0.604161 24.904C0.751946 24.9723 0.913686 25.005 1.07638 24.9994C1.23925 24.9984 1.39961 24.9591 1.54457 24.8848L24.434 13.4246C24.6044 13.3372 24.7474 13.2044 24.8473 13.0408C24.9472 12.8772 25 12.6891 25 12.4974C25 12.3057 24.9472 12.1176 24.8473 11.954C24.7474 11.7904 24.6044 11.6576 24.434 11.5702ZM2.68904 21.9885L4.98838 13.5392H14.6019V11.4556H4.98838L2.68904 3.00632L21.6352 12.4974L2.68904 21.9885Z" fill="#79CD00"/>
</svg>
