<svg width="13" height="8" viewBox="0 0 13 8" fill="none" xmlns="http://www.w3.org/2000/svg">
<path d="M5.62788 7.56915L0.26069 1.56185C0.187176 1.47807 0.125025 1.38158 0.0742331 1.27237C0.0234416 1.16316 -0.00128521 1.04572 5.14096e-05 0.920056C5.14096e-05 0.668723 0.0735647 0.452549 0.220593 0.271529C0.370294 0.0905102 0.566776 0 0.810041 0H12.19C12.4333 0 12.6291 0.0927527 12.7775 0.27826C12.9258 0.463767 13 0.679944 13 0.926789C13 0.98663 12.9131 1.19832 12.7394 1.56185L7.37217 7.56915C7.24786 7.70678 7.1142 7.813 6.97118 7.8878C6.82816 7.9626 6.67111 8 6.50003 8C6.32894 8 6.17189 7.9626 6.02887 7.8878C5.88585 7.813 5.75219 7.70678 5.62788 7.56915Z" fill="#79CD00"/>
</svg>
