<svg width="37" height="39" viewBox="0 0 37 39" fill="none" xmlns="http://www.w3.org/2000/svg">
<path d="M8.09375 22.955V20.8157H28.9062V22.955H8.09375ZM8.09375 31.5123V29.373H21.9688V31.5123H8.09375ZM3.73469 39C2.67094 39 1.78294 38.6705 1.07069 38.0116C0.356895 37.3513 0 36.5291 0 35.545V8.22573C0 7.24163 0.356895 6.42013 1.07069 5.76122C1.78294 5.10088 2.67094 4.77071 3.73469 4.77071H7.82781V0H10.3184V4.77071H26.8597V0H29.1722V4.77071H33.2653C34.3291 4.77071 35.2171 5.10088 35.9293 5.76122C36.6431 6.42013 37 7.24163 37 8.22573V35.545C37 36.5291 36.6439 37.3506 35.9316 38.0095C35.2178 38.6698 34.3291 39 33.2653 39H3.73469ZM3.73469 36.8607H33.2653C33.6199 36.8607 33.946 36.7238 34.2435 36.4499C34.5395 36.1747 34.6875 35.873 34.6875 35.545V16.7831H2.3125V35.545C2.3125 35.873 2.4605 36.1747 2.7565 36.4499C3.05404 36.7238 3.3801 36.8607 3.73469 36.8607Z" fill="#ACACAC"/>
</svg>
