<svg width="21" height="21" viewBox="0 0 21 21" fill="none" xmlns="http://www.w3.org/2000/svg">
<path d="M18.375 0H2.625C1.17715 0 0 1.17715 0 2.625V14.4375C0 15.8854 1.17715 17.0625 2.625 17.0625H6.5625V20.5078C6.5625 20.799 6.80039 21 7.05469 21C7.15312 21 7.25566 20.9713 7.3459 20.9016L12.4688 17.0625H18.375C19.8229 17.0625 21 15.8854 21 14.4375V2.625C21 1.17715 19.8229 0 18.375 0ZM19.0312 14.4375C19.0312 14.7984 18.7359 15.0938 18.375 15.0938H11.8125L11.2875 15.4875L8.53125 17.5547V15.0938H2.625C2.26406 15.0938 1.96875 14.7984 1.96875 14.4375V2.625C1.96875 2.26406 2.26406 1.96875 2.625 1.96875H18.375C18.7359 1.96875 19.0312 2.26406 19.0312 2.625V14.4375Z" fill="#79CD00"/>
</svg>
