<svg width="26" height="26" viewBox="0 0 26 26" fill="none" xmlns="http://www.w3.org/2000/svg">
<path d="M13 0C16.4478 0 19.7544 1.36964 22.1924 3.80761C24.6304 6.24558 26 9.55219 26 13C26 16.4478 24.6304 19.7544 22.1924 22.1924C19.7544 24.6304 16.4478 26 13 26C9.55219 26 6.24558 24.6304 3.80761 22.1924C1.36964 19.7544 0 16.4478 0 13C0 9.55219 1.36964 6.24558 3.80761 3.80761C6.24558 1.36964 9.55219 0 13 0ZM13 1.625C11.5062 1.625 10.0271 1.91922 8.64698 2.49087C7.2669 3.06252 6.01293 3.90039 4.95666 4.95666C3.90039 6.01293 3.06252 7.2669 2.49087 8.64698C1.91922 10.0271 1.625 11.5062 1.625 13C1.625 14.4938 1.91922 15.9729 2.49087 17.353C3.06252 18.7331 3.90039 19.9871 4.95666 21.0433C6.01293 22.0996 7.2669 22.9375 8.64698 23.5091C10.0271 24.0808 11.5062 24.375 13 24.375C16.0168 24.375 18.9101 23.1766 21.0433 21.0433C23.1766 18.9101 24.375 16.0168 24.375 13C24.375 9.98316 23.1766 7.08989 21.0433 4.95666C18.9101 2.82343 16.0168 1.625 13 1.625ZM8.37687 16.9439C9.55144 18.1264 11.1344 18.8141 12.8004 18.8655C14.4663 18.9168 16.0887 18.328 17.3339 17.2201L17.6231 16.9439C17.7659 16.7988 17.9579 16.7126 18.1612 16.7023C18.3645 16.692 18.5642 16.7584 18.7209 16.8883C18.8776 17.0182 18.9798 17.2022 19.0073 17.4039C19.0348 17.6056 18.9856 17.8102 18.8695 17.9774L18.7769 18.0911L18.7395 18.1269C17.9809 18.8807 17.0813 19.4776 16.0919 19.8837C15.1026 20.2898 14.043 20.497 12.9736 20.4935C11.9042 20.49 10.8459 20.2759 9.85924 19.8635C8.87257 19.451 7.97682 18.8482 7.22313 18.0895C7.07121 17.9365 6.98629 17.7294 6.98705 17.5138C6.98781 17.2982 7.07419 17.0917 7.22719 16.9398C7.38018 16.7879 7.58726 16.703 7.80287 16.7037C8.01848 16.7045 8.22496 16.7909 8.37687 16.9439ZM17.0625 8.9375C17.4935 8.9375 17.9068 9.10871 18.2115 9.41345C18.5163 9.7182 18.6875 10.1315 18.6875 10.5625C18.6875 10.9935 18.5163 11.4068 18.2115 11.7115C17.9068 12.0163 17.4935 12.1875 17.0625 12.1875C16.6315 12.1875 16.2182 12.0163 15.9135 11.7115C15.6087 11.4068 15.4375 10.9935 15.4375 10.5625C15.4375 10.1315 15.6087 9.7182 15.9135 9.41345C16.2182 9.10871 16.6315 8.9375 17.0625 8.9375ZM8.9375 8.9375C9.36848 8.9375 9.7818 9.10871 10.0865 9.41345C10.3913 9.7182 10.5625 10.1315 10.5625 10.5625C10.5625 10.9935 10.3913 11.4068 10.0865 11.7115C9.7818 12.0163 9.36848 12.1875 8.9375 12.1875C8.50652 12.1875 8.0932 12.0163 7.78845 11.7115C7.48371 11.4068 7.3125 10.9935 7.3125 10.5625C7.3125 10.1315 7.48371 9.7182 7.78845 9.41345C8.0932 9.10871 8.50652 8.9375 8.9375 8.9375Z" fill="#79CD00"/>
</svg>
