<svg width="23" height="25" viewBox="0 0 23 25" fill="none" xmlns="http://www.w3.org/2000/svg">
<path d="M6.00226 25C4.38597 25 2.8722 24.2921 1.77967 23.1632C-0.339118 20.9744 -0.929129 17.1542 2.04093 14.0865L14.2262 1.49693C15.4612 0.221387 17.0325 -0.272246 18.5363 0.144855C20.015 0.553027 21.2251 1.80433 21.6213 3.33115C22.0238 4.88731 21.5476 6.51107 20.3138 7.78661L8.65981 19.8277C7.99479 20.5152 7.24228 20.9221 6.48727 21.0037C5.7385 21.0854 5.02474 20.8379 4.52473 20.3213C3.61971 19.3825 3.48971 17.621 4.99724 16.0649L13.1824 7.60803C13.5187 7.26108 14.0637 7.26108 14.3999 7.60803C14.7362 7.95498 14.7362 8.51877 14.3999 8.86571L6.21351 17.3238C5.506 18.0534 5.441 18.7511 5.74225 19.0636C5.87475 19.1988 6.07476 19.2614 6.30601 19.2346C6.65977 19.1976 7.06353 18.959 7.44228 18.57L19.0963 6.5302C19.8963 5.70365 20.2025 4.73169 19.9588 3.79417C19.8369 3.33571 19.6011 2.91714 19.2741 2.57903C18.9471 2.24091 18.5401 1.99471 18.0925 1.86428C17.185 1.613 16.2425 1.93061 15.4424 2.75716L3.2572 15.3467C0.987158 17.6924 1.53092 20.3928 2.99595 21.9068C4.46223 23.4209 7.07353 23.9847 9.34482 21.6364L21.5301 9.04684C21.6095 8.96438 21.7043 8.8989 21.8088 8.85419C21.9133 8.80949 22.0255 8.78647 22.1388 8.78647C22.2521 8.78647 22.3643 8.80949 22.4689 8.85419C22.5734 8.8989 22.6681 8.96438 22.7476 9.04684C22.9094 9.21478 23 9.44083 23 9.67632C23 9.9118 22.9094 10.1379 22.7476 10.3058L10.5623 22.8954C9.12607 24.3775 7.51729 25 6.00226 25Z" fill="#79CD00"/>
</svg>
