<svg width="5" height="23" viewBox="0 0 5 23" fill="none" xmlns="http://www.w3.org/2000/svg">
<path d="M2.75 18C3.34674 18 3.91903 18.2371 4.34099 18.659C4.76295 19.081 5 19.6533 5 20.25C5 20.8467 4.76295 21.419 4.34099 21.841C3.91903 22.2629 3.34674 22.5 2.75 22.5C2.15326 22.5 1.58097 22.2629 1.15901 21.841C0.737053 21.419 0.5 20.8467 0.5 20.25C0.5 19.6533 0.737053 19.081 1.15901 18.659C1.58097 18.2371 2.15326 18 2.75 18ZM2.75 9C3.34674 9 3.91903 9.23705 4.34099 9.65901C4.76295 10.081 5 10.6533 5 11.25C5 11.8467 4.76295 12.419 4.34099 12.841C3.91903 13.2629 3.34674 13.5 2.75 13.5C2.15326 13.5 1.58097 13.2629 1.15901 12.841C0.737053 12.419 0.5 11.8467 0.5 11.25C0.5 10.6533 0.737053 10.081 1.15901 9.65901C1.58097 9.23705 2.15326 9 2.75 9ZM2.75 0C3.34674 0 3.91903 0.237053 4.34099 0.659009C4.76295 1.08097 5 1.65326 5 2.25C5 2.84674 4.76295 3.41903 4.34099 3.84099C3.91903 4.26295 3.34674 4.5 2.75 4.5C2.15326 4.5 1.58097 4.26295 1.15901 3.84099C0.737053 3.41903 0.5 2.84674 0.5 2.25C0.5 1.65326 0.737053 1.08097 1.15901 0.659009C1.58097 0.237053 2.15326 0 2.75 0Z" fill="#79CD00"/>
</svg>
