<svg width="31" height="36" viewBox="0 0 31 36" fill="none" xmlns="http://www.w3.org/2000/svg">
<path d="M31 7.71429C31 11.0229 28.2961 13.7143 24.9722 13.7143C21.6483 13.7143 18.9444 11.0229 18.9444 7.71429C18.9444 4.40572 21.6483 1.71429 24.9722 1.71429C28.2961 1.71429 31 4.40572 31 7.71429ZM27.5556 16.7829C26.6944 17.0057 25.8333 17.1429 24.9722 17.1429C22.4614 17.1383 20.0548 16.1435 18.2794 14.3763C16.504 12.6091 15.5046 10.2135 15.5 7.71429C15.5 5.19429 16.4989 2.91429 18.0833 1.21715C17.7708 0.835793 17.3767 0.528643 16.9298 0.318084C16.4829 0.107525 15.9944 -0.00113915 15.5 9.0046e-06C13.6056 9.0046e-06 12.0556 1.54287 12.0556 3.42858V3.92572C6.94056 5.43429 3.44444 10.1143 3.44444 15.4286V25.7143L0 29.1429V30.8571H31V29.1429L27.5556 25.7143V16.7829ZM15.5 36C17.4117 36 18.9444 34.4743 18.9444 32.5714H12.0556C12.0556 33.4807 12.4185 34.3528 13.0644 34.9958C13.7104 35.6388 14.5865 36 15.5 36Z" fill="#265D5E"/>
</svg>
