<svg width="27" height="27" viewBox="0 0 27 27" fill="none" xmlns="http://www.w3.org/2000/svg">
<path d="M5.41174 6.88232H3.94116C3.16111 6.88232 2.41302 7.1922 1.86145 7.74377C1.30987 8.29534 1 9.04344 1 9.82348V23.0587C1 23.8387 1.30987 24.5868 1.86145 25.1384C2.41302 25.69 3.16111 25.9999 3.94116 25.9999H17.1764C17.9564 25.9999 18.7045 25.69 19.2561 25.1384C19.8077 24.5868 20.1175 23.8387 20.1175 23.0587V21.5881" stroke="white" stroke-width="2" stroke-linecap="round" stroke-linejoin="round"/>
<path d="M18.6468 3.94132L23.0586 8.35305M25.0953 6.27218C25.6745 5.693 25.9999 4.90746 25.9999 4.08837C25.9999 3.26929 25.6745 2.48375 25.0953 1.90456C24.5161 1.32538 23.7306 1 22.9115 1C22.0924 1 21.3069 1.32538 20.7277 1.90456L8.35278 14.2354V18.6471H12.7645L25.0953 6.27218Z" stroke="white" stroke-width="2" stroke-linecap="round" stroke-linejoin="round"/>
</svg>
