<svg width="22" height="23" viewBox="0 0 22 23" fill="none" xmlns="http://www.w3.org/2000/svg">
<path d="M6.31879 11.6204C7.29084 13.6077 8.90171 15.2112 10.8934 16.1742C11.0391 16.2432 11.2003 16.2732 11.3611 16.261C11.5219 16.2488 11.6767 16.195 11.8104 16.1048L14.743 14.1493C14.8727 14.0628 15.022 14.01 15.1772 13.9958C15.3324 13.9815 15.4888 14.0062 15.6321 14.0676L21.1184 16.4189C21.3048 16.4981 21.4604 16.6357 21.5618 16.811C21.6631 16.9862 21.7048 17.1897 21.6805 17.3908C21.5071 18.7477 20.845 19.9949 19.8183 20.8988C18.7915 21.8027 17.4705 22.3014 16.1025 22.3015C11.8774 22.3015 7.82543 20.6231 4.83785 17.6355C1.85028 14.6479 0.171875 10.5959 0.171875 6.37085C0.171947 5.00289 0.670637 3.68186 1.57457 2.65512C2.4785 1.62837 3.72569 0.966307 5.08261 0.792899C5.28364 0.768572 5.48712 0.810234 5.66241 0.911608C5.8377 1.01298 5.97529 1.16858 6.05446 1.35495L8.40781 6.84609C8.46868 6.98812 8.49348 7.143 8.48001 7.29694C8.46653 7.45088 8.4152 7.5991 8.33058 7.72839L6.38184 10.706C6.29314 10.8399 6.24071 10.9946 6.22966 11.1549C6.21861 11.3151 6.24932 11.4755 6.31879 11.6204Z" fill="#79CD00"/>
</svg>
