<svg width="27" height="32" viewBox="0 0 27 32" fill="none" xmlns="http://www.w3.org/2000/svg">
<path d="M13.5 13.5C16.6756 13.5 19.25 10.9256 19.25 7.74999C19.25 4.57436 16.6756 2 13.5 2C10.3244 2 7.75 4.57436 7.75 7.74999C7.75 10.9256 10.3244 13.5 13.5 13.5Z" stroke="#79CD00" stroke-width="2.5"/>
<path d="M24.9971 25C25 24.7642 25 24.5242 25 24.2812C25 20.7091 19.8509 17.8125 13.5 17.8125C7.14912 17.8125 2 20.7091 2 24.2812C2 27.8534 2 30.75 13.5 30.75C16.707 30.75 19.02 30.5243 20.6875 30.1218" stroke="#79CD00" stroke-width="2.5" stroke-linecap="round"/>
</svg>
