<svg width="24" height="39" viewBox="0 0 24 39" fill="none" xmlns="http://www.w3.org/2000/svg">
<path d="M9.5 2H5.75C4.75544 2 3.80161 2.39509 3.09835 3.09835C2.39509 3.80161 2 4.75544 2 5.75V33.25C2 34.2446 2.39509 35.1984 3.09835 35.9016C3.80161 36.6049 4.75544 37 5.75 37H18.25C19.2446 37 20.1984 36.6049 20.9016 35.9016C21.6049 35.1984 22 34.2446 22 33.25V5.75C22 4.75544 21.6049 3.80161 20.9016 3.09835C20.1984 2.39509 19.2446 2 18.25 2H14.5M9.5 2V4.5H14.5V2M9.5 2H14.5M9.5 33.25H14.5" stroke="#79CD00" stroke-width="2.5" stroke-linecap="round" stroke-linejoin="round"/>
</svg>
