<svg width="37" height="37" viewBox="0 0 37 37" fill="none" xmlns="http://www.w3.org/2000/svg">
<path d="M18.5 0C8.2991 0 0 8.2991 0 18.5V26.1645C0 28.059 1.65945 29.6 3.7 29.6H5.55C6.04065 29.6 6.51121 29.4051 6.85815 29.0581C7.20509 28.7112 7.4 28.2407 7.4 27.75V18.2355C7.4 17.7448 7.20509 17.2742 6.85815 16.9273C6.51121 16.5804 6.04065 16.3855 5.55 16.3855H3.8702C4.8988 9.22595 11.0593 3.7 18.5 3.7C25.9407 3.7 32.1012 9.22595 33.1298 16.3855H31.45C30.9594 16.3855 30.4888 16.5804 30.1419 16.9273C29.7949 17.2742 29.6 17.7448 29.6 18.2355V29.6C29.6 31.6406 27.9405 33.3 25.9 33.3H22.2V31.45H14.8V37H25.9C29.9811 37 33.3 33.6811 33.3 29.6C35.3405 29.6 37 28.059 37 26.1645V18.5C37 8.2991 28.7009 0 18.5 0Z" fill="#ACACAC"/>
</svg>
