<svg width="27" height="27" viewBox="0 0 27 27" fill="none" xmlns="http://www.w3.org/2000/svg">
<path d="M22.95 10.8C22.592 10.8 22.2486 10.9422 21.9954 11.1954C21.7422 11.4486 21.6 11.792 21.6 12.15V16.713L19.602 14.715C18.8965 14.0151 17.943 13.6223 16.9493 13.6223C15.9555 13.6223 15.002 14.0151 14.2965 14.715L13.3515 15.6735L10.0035 12.312C9.29802 11.6121 8.34452 11.2193 7.35075 11.2193C6.35698 11.2193 5.40348 11.6121 4.698 12.312L2.7 14.3235V6.75C2.7 6.39196 2.84223 6.04858 3.09541 5.79541C3.34858 5.54223 3.69196 5.4 4.05 5.4H14.85C15.208 5.4 15.5514 5.25777 15.8046 5.00459C16.0578 4.75142 16.2 4.40804 16.2 4.05C16.2 3.69196 16.0578 3.34858 15.8046 3.09541C15.5514 2.84223 15.208 2.7 14.85 2.7H4.05C2.97587 2.7 1.94574 3.1267 1.18622 3.88622C0.426695 4.64574 0 5.67587 0 6.75V23.247C0.00355732 24.2413 0.400104 25.1938 1.10316 25.8968C1.80621 26.5999 2.75874 26.9964 3.753 27H20.547C20.9128 26.9971 21.2764 26.9425 21.627 26.838C22.4065 26.6194 23.0928 26.151 23.5805 25.5047C24.0683 24.8585 24.3305 24.0701 24.327 23.2605V12.15C24.327 11.9704 24.2912 11.7926 24.2217 11.6271C24.1522 11.4615 24.0503 11.3115 23.9221 11.1857C23.7939 11.06 23.6418 10.9611 23.4749 10.8949C23.308 10.8287 23.1295 10.7964 22.95 10.8ZM4.05 24.3C3.69196 24.3 3.34858 24.1578 3.09541 23.9046C2.84223 23.6514 2.7 23.308 2.7 22.95V18.1305L6.6015 14.229C6.7988 14.0328 7.06575 13.9227 7.344 13.9227C7.62225 13.9227 7.8892 14.0328 8.0865 14.229L18.171 24.3H4.05ZM21.6 22.95C21.5913 23.2114 21.5069 23.4647 21.357 23.679L15.255 17.55L16.2135 16.605C16.3103 16.5062 16.4258 16.4277 16.5533 16.3742C16.6808 16.3206 16.8177 16.293 16.956 16.293C17.0943 16.293 17.2312 16.3206 17.3587 16.3742C17.4862 16.4277 17.6017 16.5062 17.6985 16.605L21.6 20.5335V22.95ZM25.65 2.7H24.3V1.35C24.3 0.991958 24.1578 0.64858 23.9046 0.395406C23.6514 0.142232 23.308 0 22.95 0C22.592 0 22.2486 0.142232 21.9954 0.395406C21.7422 0.64858 21.6 0.991958 21.6 1.35V2.7H20.25C19.892 2.7 19.5486 2.84223 19.2954 3.09541C19.0422 3.34858 18.9 3.69196 18.9 4.05C18.9 4.40804 19.0422 4.75142 19.2954 5.00459C19.5486 5.25777 19.892 5.4 20.25 5.4H21.6V6.75C21.6 7.10804 21.7422 7.45142 21.9954 7.70459C22.2486 7.95777 22.592 8.1 22.95 8.1C23.308 8.1 23.6514 7.95777 23.9046 7.70459C24.1578 7.45142 24.3 7.10804 24.3 6.75V5.4H25.65C26.008 5.4 26.3514 5.25777 26.6046 5.00459C26.8578 4.75142 27 4.40804 27 4.05C27 3.69196 26.8578 3.34858 26.6046 3.09541C26.3514 2.84223 26.008 2.7 25.65 2.7Z" fill="#79CD00"/>
</svg>
