<svg width="26" height="21" viewBox="0 0 26 21" fill="none" xmlns="http://www.w3.org/2000/svg">
<path d="M17.6429 21H1.85714C1.3646 21 0.892226 20.7787 0.543944 20.3849C0.195663 19.9911 0 19.457 0 18.9V2.1C0 1.54305 0.195663 1.0089 0.543944 0.615076C0.892226 0.221249 1.3646 0 1.85714 0H17.6429C18.1354 0 18.6078 0.221249 18.9561 0.615076C19.3043 1.0089 19.5 1.54305 19.5 2.1V6.363L24.5329 2.2995C24.6714 2.18792 24.8345 2.12154 25.0042 2.1076C25.1739 2.09366 25.3437 2.13271 25.4951 2.22047C25.6465 2.30823 25.7736 2.44134 25.8627 2.60527C25.9517 2.76919 25.9992 2.95762 26 3.15V17.85C25.9992 18.0424 25.9517 18.2308 25.8627 18.3947C25.7736 18.5587 25.6465 18.6918 25.4951 18.7795C25.3437 18.8673 25.1739 18.9063 25.0042 18.8924C24.8345 18.8785 24.6714 18.8121 24.5329 18.7005L19.5 14.637V18.9C19.5 19.457 19.3043 19.9911 18.9561 20.3849C18.6078 20.7787 18.1354 21 17.6429 21ZM1.85714 2.1V18.9H17.6429V12.6C17.6436 12.4076 17.6912 12.2192 17.7802 12.0553C17.8692 11.8913 17.9964 11.7582 18.1478 11.6705C18.2992 11.5827 18.469 11.5437 18.6387 11.5576C18.8084 11.5715 18.9714 11.6379 19.11 11.7495L24.1429 15.813V5.187L19.11 9.2505C18.9714 9.36208 18.8084 9.42846 18.6387 9.4424C18.469 9.45634 18.2992 9.41729 18.1478 9.32953C17.9964 9.24177 17.8692 9.10866 17.7802 8.94473C17.6912 8.78081 17.6436 8.59238 17.6429 8.4V2.1H1.85714Z" fill="#79CD00"/>
</svg>
