<svg width="5" height="23" viewBox="0 0 5 23" fill="none" xmlns="http://www.w3.org/2000/svg">
<path d="M2.25 18C2.84674 18 3.41903 18.2371 3.84099 18.659C4.26295 19.081 4.5 19.6533 4.5 20.25C4.5 20.8467 4.26295 21.419 3.84099 21.841C3.41903 22.2629 2.84674 22.5 2.25 22.5C1.65326 22.5 1.08097 22.2629 0.659009 21.841C0.237053 21.419 0 20.8467 0 20.25C0 19.6533 0.237053 19.081 0.659009 18.659C1.08097 18.2371 1.65326 18 2.25 18ZM2.25 9C2.84674 9 3.41903 9.23705 3.84099 9.65901C4.26295 10.081 4.5 10.6533 4.5 11.25C4.5 11.8467 4.26295 12.419 3.84099 12.841C3.41903 13.2629 2.84674 13.5 2.25 13.5C1.65326 13.5 1.08097 13.2629 0.659009 12.841C0.237053 12.419 0 11.8467 0 11.25C0 10.6533 0.237053 10.081 0.659009 9.65901C1.08097 9.23705 1.65326 9 2.25 9ZM2.25 0C2.84674 0 3.41903 0.237053 3.84099 0.659009C4.26295 1.08097 4.5 1.65326 4.5 2.25C4.5 2.84674 4.26295 3.41903 3.84099 3.84099C3.41903 4.26295 2.84674 4.5 2.25 4.5C1.65326 4.5 1.08097 4.26295 0.659009 3.84099C0.237053 3.41903 0 2.84674 0 2.25C0 1.65326 0.237053 1.08097 0.659009 0.659009C1.08097 0.237053 1.65326 0 2.25 0Z" fill="white"/>
</svg>
